# File created by Blade
# Date/Time:  Wed Apr 08 17:24:36 2015
# Frame Rate: 120.000 fps
#------------------------------------------------------
:FULLY-SPECIFIED
:DEGREES
1318
root 10.293312 39.528326 7.365824 214.274817 -17.714912 -137.965180
Spine -23.706072 3.627808 0.620969
Head -8.019673 -1.321793 25.985477
LeftShoulder -7.274360 21.316933 20.120485
LeftArm 8.840252 21.771309 -80.797304
LeftForeArm 5.244184 0.000000 34.920157
LeftHand -17.105410 0.000000 -5.788786
LeftHandThumb1 -26.253704 0.000000 33.147579
RightShoulder -46.077734 -51.474351 26.622745
RightArm 38.181907 -22.460087 61.756739
RightForeArm 40.118583 -0.000000 21.293322
RightHand -9.462231 0.000000 9.590516
RightHandThumb1 -24.326973 -0.000000 -32.862282
LeftUpLeg -80.620768 44.419064 -21.529123
LeftLeg 17.796531 -0.000000 -0.000000
LeftFoot -7.834883 7.120020 -10.887765
LeftToeBase 10.040427 -0.000000 -0.000000
RightUpLeg -29.875407 -7.976816 -32.561256
RightLeg 151.317810 -0.000000 -0.000000
RightFoot 40.905368 17.559052 14.227141
RightToeBase -9.692125 -0.000000 0.000000
1319
root 10.234487 39.523859 7.349703 213.926165 -17.760373 -138.216038
Spine -23.630952 3.782260 0.828088
Head -7.794301 -1.355277 25.667447
LeftShoulder -7.088352 21.386155 20.233471
LeftArm 8.889856 22.089597 -80.974524
LeftForeArm 5.324883 0.000000 35.286406
LeftHand -17.132450 0.000000 -5.670107
LeftHandThumb1 -26.253704 0.000000 33.147579
RightShoulder -46.213620 -51.463036 26.717911
RightArm 38.408664 -22.439967 61.622176
RightForeArm 40.203664 0.000000 21.261716
RightHand -9.388869 -0.000000 9.666881
RightHandThumb1 -24.326973 -0.000000 -32.862282
LeftUpLeg -79.277899 44.297457 -20.684148
LeftLeg 17.479591 -0.000000 -0.000000
LeftFoot -7.531216 7.233855 -10.528346
LeftToeBase 9.273351 -0.000000 -0.000000
RightUpLeg -30.230149 -8.083179 -32.321483
RightLeg 151.387822 -0.000000 -0.000000
RightFoot 40.846152 17.686128 14.006718
RightToeBase -11.005998 -0.000000 0.000000
1320
root 10.172434 39.522815 7.328870 213.404547 -17.836255 -138.491353
Spine -23.338595 3.759566 1.138013
Head -7.567753 -1.125232 25.363249
LeftShoulder -7.090411 21.436494 20.281305
LeftArm 8.921721 22.582609 -81.092381
LeftForeArm 5.440608 -0.000000 35.725555
LeftHand -17.099575 -0.000000 -5.676189
LeftHandThumb1 -26.253704 0.000000 33.147579
RightShoulder -46.093391 -51.433933 26.649836
RightArm 38.646011 -22.398902 61.507242
RightForeArm 40.375256 -0.000000 21.208376
RightHand -9.537259 -0.000000 9.489339
RightHandThumb1 -24.326973 -0.000000 -32.862282
LeftUpLeg -77.747160 44.191137 -19.712453
LeftLeg 17.206645 -0.000000 -0.000000
LeftFoot -7.173516 7.383348 -10.160051
LeftToeBase 8.489550 -0.000000 -0.000000
RightUpLeg -30.439065 -8.145910 -32.039112
RightLeg 151.470730 -0.000000 -0.000000
RightFoot 40.935832 17.576082 13.977185
RightToeBase -11.708754 -0.000000 0.000000
1321
root 10.103162 39.533631 7.311909 212.986943 -17.865661 -138.796113
Spine -23.180340 3.750418 1.418366
Head -7.226010 -0.872563 24.994561
LeftShoulder -7.083808 21.413242 20.384928
LeftArm 8.831881 23.194991 -81.226550
LeftForeArm 5.561284 -0.000000 36.246561
LeftHand -16.953257 -0.000000 -5.798074
LeftHandThumb1 -26.253704 0.000000 33.147579
RightShoulder -46.039718 -51.408423 26.629518
RightArm 38.910199 -22.321551 61.491869
RightForeArm 40.411863 -0.000000 21.071165
RightHand -9.242114 -0.000000 9.537084
RightHandThumb1 -24.326973 -0.000000 -32.862282
LeftUpLeg -76.423407 44.068053 -18.971320
LeftLeg 16.949535 -0.000000 -0.000000
LeftFoot -6.667294 7.539112 -9.725483
LeftToeBase 7.527600 -0.000000 -0.000000
RightUpLeg -30.834866 -8.240839 -31.724197
RightLeg 151.604205 -0.000000 -0.000000
RightFoot 41.034731 17.348965 14.179331
RightToeBase -11.107486 -0.000000 0.000000
1322
root 10.027889 39.555736 7.297454 212.689849 -17.801883 -139.134538
Spine -23.203170 3.844210 1.597720
Head -6.775411 -0.636147 24.656083
LeftShoulder -6.994392 21.372245 20.604977
LeftArm 8.685851 23.918077 -81.359320
LeftForeArm 5.648133 -0.000000 36.839495
LeftHand -16.758112 -0.000000 -6.139242
LeftHandThumb1 -26.253704 0.000000 33.147579
RightShoulder -46.011260 -51.385329 26.593652
RightArm 39.055359 -22.215528 61.708895
RightForeArm 40.397884 -0.000000 21.020530
RightHand -9.321128 -0.000000 9.114049
RightHandThumb1 -24.326973 -0.000000 -32.862282
LeftUpLeg -75.239888 43.944164 -18.371532
LeftLeg 16.722905 -0.000000 -0.000000
LeftFoot -6.133195 7.704054 -9.412921
LeftToeBase 6.603678 -0.000000 -0.000000
RightUpLeg -31.439358 -8.356969 -31.408108
RightLeg 151.790833 -0.000000 -0.000000
RightFoot 41.125672 17.240931 14.419683
RightToeBase -10.741544 -0.000000 0.000000
1323
root 9.956294 39.578298 7.278398 212.055915 -17.922838 -139.538289
Spine -22.781752 3.715415 1.904479
Head -6.419908 -0.292937 24.327066
LeftShoulder -6.958607 21.265104 20.747154
LeftArm 8.531759 24.636917 -81.422687
LeftForeArm 5.790507 -0.000000 37.584039
LeftHand -16.639525 -0.000000 -6.608114
LeftHandThumb1 -26.253704 0.000000 33.147579
RightShoulder -45.816394 -51.300643 26.439750
RightArm 39.147611 -22.021815 62.064804
RightForeArm 39.902571 -0.000000 20.995665
RightHand -8.972894 -0.000000 8.719657
RightHandThumb1 -24.326973 -0.000000 -32.862282
LeftUpLeg -73.436223 43.682263 -17.177115
LeftLeg 16.557876 -0.000000 -0.000000
LeftFoot -5.552470 7.969038 -9.112441
LeftToeBase 5.640600 -0.000000 -0.000000
RightUpLeg -31.657633 -8.611588 -31.032401
RightLeg 151.980685 -0.000000 -0.000000
RightFoot 41.114475 17.252578 14.259690
RightToeBase -10.650141 -0.000000 0.000000
1324
root 9.876633 39.609030 7.251201 211.530276 -17.956682 -139.998867
Spine -22.552995 3.613830 2.106802
Head -5.854068 0.045931 23.992822
LeftShoulder -6.919803 21.217189 20.941908
LeftArm 8.317161 25.328020 -81.491819
LeftForeArm 5.960143 -0.000000 38.404679
LeftHand -16.364212 -0.000000 -7.112008
LeftHandThumb1 -26.253704 0.000000 33.147579
RightShoulder -45.711349 -51.259042 26.358888
RightArm 39.284375 -21.854856 62.431373
RightForeArm 39.683166 -0.000000 20.953287
RightHand -8.785653 -0.000000 8.342824
RightHandThumb1 -24.326973 -0.000000 -32.862282
LeftUpLeg -71.662438 43.390756 -16.033186
LeftLeg 16.411994 -0.000000 -0.000000
LeftFoot -4.910584 8.238683 -8.854728
LeftToeBase 4.704629 -0.000000 -0.000000
RightUpLeg -32.032594 -8.955872 -30.672487
RightLeg 152.186881 -0.000000 -0.000000
RightFoot 41.156426 17.181331 14.261514
RightToeBase -11.153486 -0.000000 0.000000
1325
root 9.791238 39.638323 7.213131 210.831901 -17.889090 -140.478488
Spine -22.152385 3.559281 2.273909
Head -5.229740 0.394179 23.709357
LeftShoulder -6.885183 21.148218 21.101018
LeftArm 8.029489 25.924905 -81.539242
LeftForeArm 6.159173 0.000000 39.304542
LeftHand -16.095912 -0.000000 -7.694874
LeftHandThumb1 -26.253704 0.000000 33.147579
RightShoulder -45.545188 -51.193899 26.267283
RightArm 39.397372 -21.617019 62.847587
RightForeArm 39.325643 0.000000 20.916894
RightHand -8.659230 -0.000000 8.052281
RightHandThumb1 -24.326973 -0.000000 -32.862282
LeftUpLeg -69.567570 43.149995 -14.637399
LeftLeg 16.331849 -0.000000 -0.000000
LeftFoot -4.350130 8.525761 -8.763863
LeftToeBase 3.779453 -0.000000 -0.000000
RightUpLeg -32.259747 -9.182479 -30.451551
RightLeg 152.391368 -0.000000 -0.000000
RightFoot 41.291117 17.069501 14.644554
RightToeBase -11.679708 -0.000000 0.000000
1326
root 9.699835 39.672972 7.176901 210.182508 -17.806491 -140.985444
Spine -21.825267 3.476509 2.457368
Head -4.518411 0.768440 23.325315
LeftShoulder -6.896478 21.157912 21.213630
LeftArm 7.789971 26.489231 -81.518802
LeftForeArm 6.247559 -0.000000 40.288200
LeftHand -15.905932 -0.000000 -8.170776
LeftHandThumb1 -26.253704 0.000000 33.147579
RightShoulder -45.422403 -51.137901 26.207408
RightArm 39.627903 -21.508538 63.031259
RightForeArm 39.234203 0.000000 20.853222
RightHand -8.541342 -0.000000 7.699577
RightHandThumb1 -24.326973 -0.000000 -32.862282
LeftUpLeg -67.574704 42.879464 -13.369926
LeftLeg 16.258651 -0.000000 -0.000000
LeftFoot -3.728793 8.750548 -8.683871
LeftToeBase 2.842492 -0.000000 -0.000000
RightUpLeg -32.606909 -9.648753 -30.184306
RightLeg 152.595308 -0.000000 -0.000000
RightFoot 41.642719 15.912308 16.061258
RightToeBase -11.333478 -0.000000 0.000000
1327
root 9.604465 39.714571 7.144147 209.586437 -17.750942 -141.476159
Spine -21.585434 3.348891 2.737936
Head -3.697099 1.175188 22.857229
LeftShoulder -6.960452 21.248914 21.232527
LeftArm 7.574475 26.936047 -81.446428
LeftForeArm 6.474690 -0.000000 41.307857
LeftHand -15.744247 -0.000000 -8.645152
LeftHandThumb1 -26.253704 0.000000 33.147579
RightShoulder -45.241940 -51.109810 26.068975
RightArm 39.898609 -21.456796 63.137860
RightForeArm 39.357064 -0.000000 20.746502
RightHand -8.645575 -0.000000 7.236461
RightHandThumb1 -24.326973 -0.000000 -32.862282
LeftUpLeg -65.681603 42.524288 -12.121843
LeftLeg 16.217998 -0.000000 -0.000000
LeftFoot -3.053398 9.005338 -8.663917
LeftToeBase 1.857703 -0.000000 -0.000000
RightUpLeg -32.993974 -10.193020 -29.899769
RightLeg 152.785381 -0.000000 -0.000000
RightFoot 42.165215 15.070575 17.519312
RightToeBase -11.135239 -0.000000 0.000000
1328
root 9.502526 39.762938 7.109900 209.085065 -17.730301 -141.978313
Spine -21.489056 3.183658 3.064347
Head -2.808541 1.605253 22.324312
LeftShoulder -7.049692 21.362558 21.222996
LeftArm 7.337043 27.213321 -81.414839
LeftForeArm 6.666630 -0.000000 42.254709
LeftHand -15.535961 0.000000 -9.064157
LeftHandThumb1 -26.253704 0.000000 33.147579
RightShoulder -45.051217 -51.068529 25.886752
RightArm 40.124009 -21.441443 63.196436
RightForeArm 39.573811 -0.000000 20.574706
RightHand -8.589569 -0.000000 6.953251
RightHandThumb1 -24.326973 -0.000000 -32.862282
LeftUpLeg -63.952703 42.107046 -11.018639
LeftLeg 16.156712 -0.000000 -0.000000
LeftFoot -2.305671 9.200938 -8.711086
LeftToeBase 0.894151 -0.000000 -0.000000
RightUpLeg -33.457693 -11.036532 -29.468256
RightLeg 152.965768 -0.000000 -0.000000
RightFoot 42.614546 14.699749 18.055822
RightToeBase -10.691724 -0.000000 0.000000
